# xmcd CD database file
#
# Track frame offsets:
#	150
#	13355
#	30388
#	49579
#	70008
#	90481
#	108152
#	126503
#	148112
#	167299
#	183174
#	207079
#
# Disc length: 3235 seconds
#
# Revision: 2
# Processed by: cddbd v1.4PL0 Copyright (c) Steve Scherf et al.
# Submitted via: Feurio! 1.66 - http://www.feurio.com
#
DISCID=980ca10c
DTITLE=Beverly Jo Scott - Divine Rebel
DYEAR=2003
DGENRE=Rock
TTITLE0=Pocket Change
TTITLE1=Tenessee Tears
TTITLE2=Tolling
TTITLE3=Nights In White Satin
TTITLE4=Beverly Jo Scott (duo with Paul Personne) - Sublime Guérison
TTITLE5=Beverly Jo Scott (duo with Gaëlle) - L'Étrangère
TTITLE6=Dress Tails
TTITLE7=Great White Ghost
TTITLE8=Pagan Paradise
TTITLE9=Lying Still
TTITLE10=Believe
TTITLE11=Little Girls
EXTD=YEAR: 2003
EXTT0=
EXTT1=
EXTT2=
EXTT3=
EXTT4=
EXTT5=
EXTT6=
EXTT7=
EXTT8=
EXTT9=
EXTT10=
EXTT11=
PLAYORDER=
